<?xml version="1.0" encoding="utf-8"?>
<!-- Generator: Adobe Illustrator 22.1.0, SVG Export Plug-In . SVG Version: 6.00 Build 0)  -->
<svg version="1.1" id="Слой_1" xmlns="http://www.w3.org/2000/svg" xmlns:xlink="http://www.w3.org/1999/xlink" x="0px" y="0px"
	 viewBox="0 0 283.5 85" style="enable-background:new 0 0 283.5 85;" xml:space="preserve">
<style type="text/css">
	.st0{fill-rule:evenodd;clip-rule:evenodd;fill:#D24A43;}
	.st1{fill:#D24A43;}
	.st2{fill:#FFFFFF;}
</style>
<path class="st0" d="M266.2,36.5H277v40.1h-10.8V36.5z"/>
<path class="st1" d="M72.3,36.6c-1.6-0.1-8.8,0-15,6.3l-24,22c-2.9,2.7-6.3,2.5-6.3,2.5l-0.5,0c-5.7,0-10.4-4.6-10.4-10.3
	c0-5.7,4.7-10.3,10.4-10.3l0,0c4.4,0.1,8.3,3,9.7,7.2l7.9-6.9c-3.6-6.2-10.4-10.3-17.8-10.3l0,0C15.1,36.7,6,45.8,6,56.9
	c0,11.2,9.1,20.3,20.3,20.4c0.2,0,0.4,0,0.7,0c2.4,0,8.1-0.5,13.1-5.2l24.1-22l0.2-0.2c3.3-3.5,7.2-3.3,7.3-3.3l0.4,0
	c5.7,0,10.4,4.6,10.4,10.3c0,5.7-4.7,10.3-10.4,10.3c-4.5,0-8.6-3-9.9-7.3l-7.9,7c3.6,6.2,10.4,10.3,17.8,10.3
	c11.3,0,20.5-9.1,20.5-20.4C92.6,45.7,83.5,36.6,72.3,36.6z"/>
<path class="st1" d="M255.6,36.6c-1.6-0.1-8.8,0-15,6.3l-24,22c-2.9,2.7-6.3,2.5-6.3,2.5l-0.5,0c-5.7,0-10.4-4.6-10.4-10.3
	c0-5.7,4.7-10.3,10.4-10.3l0,0c4.4,0.1,8.3,3,9.7,7.2l7.9-6.9c-3.6-6.2-10.4-10.3-17.8-10.3l0,0c-11.2,0.1-20.2,9.2-20.2,20.4
	c0,11.2,9.1,20.3,20.3,20.4c0.2,0,0.4,0,0.7,0c2.4,0,8.1-0.5,13.1-5.2l24.1-22l0.2-0.2c3.3-3.5,7.2-3.3,7.3-3.3l0.4,0
	c5.7,0,10.4,4.6,10.4,10.3c0,5.7-4.7,10.3-10.4,10.3c-4.5,0-8.6-3-9.9-7.3l-7.9,7c3.6,6.2,10.4,10.3,17.8,10.3
	c11.3,0,20.5-9.1,20.5-20.4C275.9,45.7,266.8,36.6,255.6,36.6z"/>
<path class="st2" d="M138.3,7.4h-10.7v34.8c-3-3.1-6.8-4.7-11.3-4.7c-5.5,0-10,1.9-13.5,5.8c-3.4,3.8-5.2,8.5-5.2,14
	c0,5.6,1.7,10.2,5.1,14c3.5,3.9,8.1,5.9,13.6,5.9c4.9,0,8.7-1.6,11.2-4.9v3.8h10.7V7.4z M124.9,64.8c-1.8,1.9-4.2,2.9-7.2,2.9
	c-2.8,0-5.1-1-6.9-3.1c-1.8-2-2.7-4.5-2.7-7.3c0-2.9,0.9-5.4,2.8-7.3c1.8-2,4.2-3,7.1-3c3.1,0,5.5,1,7.2,2.9
	c1.7,1.9,2.6,4.4,2.6,7.5C127.6,60.4,126.7,62.9,124.9,64.8z"/>
<path class="st2" d="M181.8,38.6h-10.9v20.2c0,5.9-2.1,8.8-6.4,8.8c-4,0-6-2.7-6-8.1v-21h-10.9v23.1c0,4.7,1.3,8.4,3.8,11.1
	c2.6,2.9,6.2,4.3,10.8,4.3c4.2,0,7.3-1.8,9.4-5.3v4.2h10.2V38.6z"/>
</svg>
